<?xml version='1.0' encoding='UTF-8'?>
<svg width="500" height="500" viewBox="-100 -500 600 600" xmlns="http://www.w3.org/2000/svg">
  <line x1="-100" y1="100" x2="-100" y2="-500" stroke="#464646" stroke-width="1"/>
  <line x1="0" y1="100" x2="0" y2="-500" stroke="#464646" stroke-width="1"/>
  <line x1="100" y1="100" x2="100" y2="-500" stroke="#464646" stroke-width="1"/>
  <line x1="200" y1="100" x2="200" y2="-500" stroke="#464646" stroke-width="1"/>
  <line x1="300" y1="100" x2="300" y2="-500" stroke="#464646" stroke-width="1"/>
  <line x1="400" y1="100" x2="400" y2="-500" stroke="#464646" stroke-width="1"/>
  <line x1="500" y1="100" x2="500" y2="-500" stroke="#464646" stroke-width="1"/>
  <line x1="-100" y1="100" x2="500" y2="100" stroke="#464646" stroke-width="1"/>
  <line x1="-100" y1="0" x2="500" y2="0" stroke="#464646" stroke-width="1"/>
  <line x1="-100" y1="-100" x2="500" y2="-100" stroke="#464646" stroke-width="1"/>
  <line x1="-100" y1="-200" x2="500" y2="-200" stroke="#464646" stroke-width="1"/>
  <line x1="-100" y1="-300" x2="500" y2="-300" stroke="#464646" stroke-width="1"/>
  <line x1="-100" y1="-400" x2="500" y2="-400" stroke="#464646" stroke-width="1"/>
  <line x1="-100" y1="-500" x2="500" y2="-500" stroke="#464646" stroke-width="1"/>
  <line x1="-100" y1="0" x2="500" y2="0" stroke="black" stroke-width="2"/>
  <line x1="0" y1="100" x2="0" y2="-500" stroke="black" stroke-width="2"/>
  <defs>
    <marker id="arrow" markerWidth="5" markerHeight="5" refX="4" refY="2.5" orient="auto">
      <path d="M0,0 L5,2.5 L0,5 Z" fill="#9254de"/>
    </marker>
  </defs>
  <line x1="0" y1="0" x2="200" y2="-400" stroke="#9254de" stroke-width="8" marker-end="url(#arrow)" aria-description="a"/>
  <text x="68.0" y="-232.0" fill="#242424" font-family="Arial" font-weight="600" font-size="48">a</text>
  <line x1="100" y1="-300" x2="200" y2="-500" stroke="#9254de" stroke-width="8" marker-end="url(#arrow)" aria-description="b"/>
  <text x="118.0" y="-432.0" fill="#242424" font-family="Arial" font-weight="600" font-size="48">b</text>
</svg>
