<?xml version='1.0' encoding='UTF-8'?>
<svg width="500" height="500" viewBox="-200 -800 1000 1000" xmlns="http://www.w3.org/2000/svg">
  <line x1="-200" y1="200" x2="-200" y2="-800" stroke="#464646" stroke-width="1"/>
  <line x1="-100" y1="200" x2="-100" y2="-800" stroke="#464646" stroke-width="1"/>
  <line x1="0" y1="200" x2="0" y2="-800" stroke="#464646" stroke-width="1"/>
  <line x1="100" y1="200" x2="100" y2="-800" stroke="#464646" stroke-width="1"/>
  <line x1="200" y1="200" x2="200" y2="-800" stroke="#464646" stroke-width="1"/>
  <line x1="300" y1="200" x2="300" y2="-800" stroke="#464646" stroke-width="1"/>
  <line x1="400" y1="200" x2="400" y2="-800" stroke="#464646" stroke-width="1"/>
  <line x1="500" y1="200" x2="500" y2="-800" stroke="#464646" stroke-width="1"/>
  <line x1="600" y1="200" x2="600" y2="-800" stroke="#464646" stroke-width="1"/>
  <line x1="700" y1="200" x2="700" y2="-800" stroke="#464646" stroke-width="1"/>
  <line x1="800" y1="200" x2="800" y2="-800" stroke="#464646" stroke-width="1"/>
  <line x1="-200" y1="200" x2="800" y2="200" stroke="#464646" stroke-width="1"/>
  <line x1="-200" y1="100" x2="800" y2="100" stroke="#464646" stroke-width="1"/>
  <line x1="-200" y1="0" x2="800" y2="0" stroke="#464646" stroke-width="1"/>
  <line x1="-200" y1="-100" x2="800" y2="-100" stroke="#464646" stroke-width="1"/>
  <line x1="-200" y1="-200" x2="800" y2="-200" stroke="#464646" stroke-width="1"/>
  <line x1="-200" y1="-300" x2="800" y2="-300" stroke="#464646" stroke-width="1"/>
  <line x1="-200" y1="-400" x2="800" y2="-400" stroke="#464646" stroke-width="1"/>
  <line x1="-200" y1="-500" x2="800" y2="-500" stroke="#464646" stroke-width="1"/>
  <line x1="-200" y1="-600" x2="800" y2="-600" stroke="#464646" stroke-width="1"/>
  <line x1="-200" y1="-700" x2="800" y2="-700" stroke="#464646" stroke-width="1"/>
  <line x1="-200" y1="-800" x2="800" y2="-800" stroke="#464646" stroke-width="1"/>
  <line x1="-200" y1="0" x2="800" y2="0" stroke="black" stroke-width="2"/>
  <line x1="0" y1="200" x2="0" y2="-800" stroke="black" stroke-width="2"/>
  <text x="-42" y="52" fill="#242424" font-family="Arial" font-weight="600" font-size="48">0</text>
  <text x="88" y="52" fill="#242424" font-family="Arial" font-weight="600" font-size="48">1</text>
  <text x="-42" y="-80" fill="#242424" font-family="Arial" font-weight="600" font-size="48">1</text>
  <defs>
    <marker id="arrow" markerWidth="5" markerHeight="5" refX="4" refY="2.5" orient="auto">
      <path d="M0,0 L5,2.5 L0,5 Z" fill="#9254de"/>
    </marker>
  </defs>
  <line x1="0" y1="-700" x2="500" y2="0" stroke="#9254de" stroke-width="8" marker-end="url(#arrow)" aria-description="a"/>
  <text x="248.03947107861552" y="-353.5996221990111" fill="#242424" font-family="Arial" font-weight="600" font-size="48">a</text>
  <line x1="246.03947107861552" y1="-393.5996221990111" x2="276.0394710786155" y2="-393.5996221990111" stroke="#242424" stroke-width="3"/>
  <line x1="276.0394710786155" y1="-392.5996221990111" x2="271.0394710786155" y2="-398.5996221990111" stroke="#242424" stroke-width="3"/>
  <line x1="276.0394710786155" y1="-394.5996221990111" x2="271.0394710786155" y2="-388.5996221990111" stroke="#242424" stroke-width="3"/>
  <line x1="700" y1="100" x2="200" y2="0" stroke="#9254de" stroke-width="8" marker-end="url(#arrow)" aria-description="b"/>
  <text x="415.72428367557814" y="96.37858162210945" fill="#242424" font-family="Arial" font-weight="600" font-size="48">b</text>
  <line x1="413.72428367557814" y1="56.37858162210945" x2="443.72428367557814" y2="56.37858162210945" stroke="#242424" stroke-width="3"/>
  <line x1="443.72428367557814" y1="57.37858162210945" x2="438.72428367557814" y2="51.37858162210945" stroke="#242424" stroke-width="3"/>
  <line x1="443.72428367557814" y1="55.37858162210945" x2="438.72428367557814" y2="61.37858162210945" stroke="#242424" stroke-width="3"/>
</svg>
