<svg xmlns="http://www.w3.org/2000/svg" width="250" height="250" viewBox="0 0 250 250">
  <line x1="50" y1="150" x2="50" y2="50" stroke="#646464" stroke-dasharray="5,5"/>
  <line x1="190" y1="140" x2="190" y2="40" stroke="#646464" stroke-dasharray="5,5"/>
  <line x1="70" y1="220" x2="70" y2="120" stroke="#646464" stroke-dasharray="5,5"/>
  <line x1="50" y1="150" x2="190" y2="140" stroke="#646464"/>
  <line x1="190" y1="140" x2="70" y2="220" stroke="#646464"/>
  <line x1="70" y1="220" x2="50" y2="150" stroke="#646464"/>
  <line x1="50" y1="50" x2="190" y2="40" stroke="#646464"/>
  <line x1="190" y1="40" x2="70" y2="120" stroke="#646464"/>
  <line x1="70" y1="120" x2="50" y2="50" stroke="#646464"/>
  <polygon points="70,220 50,50 190,40" fill="#9254de" fill-opacity="0.05"/>
  <polygon points="70,220 50,50 70,120" fill="#9254de" fill-opacity="0.05"/>
  <polygon points="70,220 190,40 70,120" fill="#9254de" fill-opacity="0.05"/>
  <polygon points="50,50 190,40 70,120" fill="#9254de" fill-opacity="0.05"/>
  <line x1="70" y1="120" x2="70" y2="220" stroke="#9254de" stroke-width="2"/>
  <line x1="50" y1="50" x2="70" y2="120" stroke="#9254de" stroke-width="2"/>
  <line x1="50" y1="50" x2="190" y2="40" stroke="#9254de" stroke-width="2"/>
  <line x1="190" y1="40" x2="70" y2="220" stroke="#9254de" stroke-width="2"/>
  <line x1="190" y1="40" x2="70" y2="120" stroke="#9254de" stroke-width="2"/>
  <line x1="50" y1="50" x2="70" y2="220" stroke="#9254de" stroke-width="2"/>
  <text x="38" y="158" fill="#242424" font-family="Arial" font-weight="bold" font-size="14">P</text>
  <text x="198" y="148" fill="#242424" font-family="Arial" font-weight="bold" font-size="14">Q</text>
  <text x="58" y="228" fill="#242424" font-family="Arial" font-weight="bold" font-size="14">R</text>
  <text x="38" y="42" fill="#242424" font-family="Arial" font-weight="bold" font-size="14">P1</text>
  <text x="198" y="32" fill="#242424" font-family="Arial" font-weight="bold" font-size="14">Q1</text>
  <text x="58" y="112" fill="#242424" font-family="Arial" font-weight="bold" font-size="14">R1</text>
</svg>
