<svg width="25" height="25" viewBox="0 0 25 25" fill="none" xmlns="http://www.w3.org/2000/svg">
<path d="M20.1192 13.4763C20.0187 13.0745 19.6115 12.8302 19.2097 12.9306L15.2097 13.9306C14.8079 14.0311 14.5635 14.4383 14.664 14.8401C14.7645 15.242 15.1717 15.4863 15.5735 15.3858L19.5735 14.3858C19.9753 14.2854 20.2197 13.8782 20.1192 13.4763Z" fill="black"/>
<path d="M20.1416 6.15824C20.1416 5.74402 19.8058 5.40824 19.3916 5.40824C18.9774 5.40824 18.6416 5.74402 18.6416 6.15824V9.59683L17.8923 9.24089L17.8835 9.23646C17.8345 9.21139 17.6279 9.10581 17.3916 9.10581C17.1553 9.10581 16.9487 9.21139 16.8997 9.23646L16.8909 9.2409L16.1416 9.59683V7.60826C16.1416 7.19405 15.8058 6.85826 15.3916 6.85826C14.9774 6.85826 14.6416 7.19405 14.6416 7.60826L14.6416 10.1954C14.6414 10.3067 14.6412 10.4652 14.6625 10.6013C14.6885 10.7678 14.774 11.089 15.1067 11.2844C15.4271 11.4725 15.7404 11.4026 15.8894 11.3563C16.0192 11.3159 16.1616 11.2481 16.2678 11.1975L17.3916 10.6637L18.5154 11.1975C18.6216 11.2481 18.764 11.3159 18.8938 11.3563C19.0428 11.4026 19.3561 11.4725 19.6765 11.2844C20.0092 11.089 20.0947 10.7678 20.1207 10.6013C20.142 10.4652 20.1418 10.3067 20.1416 10.1954L20.1416 6.15824Z" fill="black"/>
<path d="M4.66399 9.47634C4.76446 9.07449 5.17166 8.83017 5.5735 8.93063L9.5735 9.93063C9.97535 10.0311 10.2197 10.4383 10.1192 10.8401C10.0187 11.242 9.61155 11.4863 9.2097 11.3858L5.2097 10.3858C4.80785 10.2854 4.56353 9.87818 4.66399 9.47634Z" fill="black"/>
<path d="M5.5735 12.9306C5.17166 12.8302 4.76446 13.0745 4.66399 13.4763C4.56353 13.8782 4.80785 14.2854 5.2097 14.3858L9.2097 15.3858C9.61155 15.4863 10.0187 15.242 10.1192 14.8401C10.2197 14.4383 9.97535 14.0311 9.5735 13.9306L5.5735 12.9306Z" fill="black"/>
<path fill-rule="evenodd" clip-rule="evenodd" d="M23.1416 5.59143C23.1416 4.12812 21.9763 2.87319 20.4475 2.92644C19.3091 2.96609 17.8212 3.08451 16.6765 3.42719C15.6815 3.72508 14.5622 4.30692 13.6898 4.81186C12.8717 5.28533 11.8533 5.30894 11.0244 4.87068C10.029 4.3443 8.71926 3.72035 7.58296 3.42051C6.62215 3.16697 5.40677 3.04519 4.42001 2.98454C2.86177 2.88877 1.6416 4.15688 1.6416 5.65604V16.8018C1.6416 18.338 2.88539 19.5374 4.35964 19.6296C5.3184 19.6896 6.39726 19.8049 7.20024 20.0168C8.1928 20.2787 9.4202 20.8611 10.4112 21.3893C11.6445 22.0467 13.1387 22.0467 14.372 21.3893C15.363 20.8611 16.5904 20.2787 17.583 20.0168C18.3859 19.8049 19.4648 19.6896 20.4236 19.6296C21.8978 19.5374 23.1416 18.338 23.1416 16.8018V5.59143ZM20.4997 4.42553C21.1145 4.40412 21.6416 4.90984 21.6416 5.59143V16.8018C21.6416 17.4876 21.0733 18.086 20.3299 18.1325C19.3498 18.1938 18.1507 18.3156 17.2002 18.5664C16.0299 18.8753 14.6743 19.5283 13.6664 20.0656C13.4981 20.1553 13.3221 20.226 13.1416 20.2776V6.60027C13.5939 6.50973 14.0337 6.34592 14.4411 6.11012C15.2916 5.61792 16.2865 5.10973 17.1067 4.86418C18.0559 4.58002 19.3808 4.4645 20.4997 4.42553ZM11.6416 6.63322C11.1866 6.56246 10.7406 6.41739 10.3233 6.19671C9.34646 5.6802 8.16236 5.12474 7.20024 4.87086C6.38803 4.65653 5.29398 4.54108 4.328 4.48171C3.69403 4.44275 3.1416 4.95886 3.1416 5.65604V16.8018C3.1416 17.4876 3.70991 18.086 4.45328 18.1325C5.43336 18.1938 6.63252 18.3156 7.58296 18.5664C8.75331 18.8753 10.1089 19.5283 11.1168 20.0656C11.2851 20.1553 11.4611 20.226 11.6416 20.2776V6.63322Z" fill="black"/>
</svg>
