<svg width="24" height="25" viewBox="0 0 24 25" fill="none" xmlns="http://www.w3.org/2000/svg">
<path fill-rule="evenodd" clip-rule="evenodd" d="M1.25 12.5C1.25 6.56294 6.06294 1.75 12 1.75C17.9371 1.75 22.75 6.56294 22.75 12.5C22.75 18.4371 17.9371 23.25 12 23.25C6.06294 23.25 1.25 18.4371 1.25 12.5ZM12 3.25C6.89137 3.25 2.75 7.39137 2.75 12.5C2.75 17.6086 6.89137 21.75 12 21.75C17.1086 21.75 21.25 17.6086 21.25 12.5C21.25 7.39137 17.1086 3.25 12 3.25ZM12 6.75C12.4142 6.75 12.75 7.08579 12.75 7.5L12.75 17.5C12.75 17.9142 12.4142 18.25 12 18.25C11.5858 18.25 11.25 17.9142 11.25 17.5L11.25 7.5C11.25 7.08579 11.5858 6.75 12 6.75ZM7 8.75C7.41421 8.75 7.75 9.08579 7.75 9.5V15.5C7.75 15.9142 7.41421 16.25 7 16.25C6.58579 16.25 6.25 15.9142 6.25 15.5V9.5C6.25 9.08579 6.58579 8.75 7 8.75ZM17 9.75C17.4142 9.75 17.75 10.0858 17.75 10.5V14.5C17.75 14.9142 17.4142 15.25 17 15.25C16.5858 15.25 16.25 14.9142 16.25 14.5V10.5C16.25 10.0858 16.5858 9.75 17 9.75Z" fill="#000"/>
</svg>
