<svg width="25" height="24" viewBox="0 0 25 24" fill="none" xmlns="http://www.w3.org/2000/svg">
<path d="M17.3916 14C17.9439 14 18.3916 13.5523 18.3916 13C18.3916 12.4477 17.9439 12 17.3916 12C16.8393 12 16.3916 12.4477 16.3916 13C16.3916 13.5523 16.8393 14 17.3916 14Z" fill="black"/>
<path d="M17.3916 18C17.9439 18 18.3916 17.5523 18.3916 17C18.3916 16.4477 17.9439 16 17.3916 16C16.8393 16 16.3916 16.4477 16.3916 17C16.3916 17.5523 16.8393 18 17.3916 18Z" fill="black"/>
<path d="M13.3916 13C13.3916 13.5523 12.9439 14 12.3916 14C11.8393 14 11.3916 13.5523 11.3916 13C11.3916 12.4477 11.8393 12 12.3916 12C12.9439 12 13.3916 12.4477 13.3916 13Z" fill="black"/>
<path d="M13.3916 17C13.3916 17.5523 12.9439 18 12.3916 18C11.8393 18 11.3916 17.5523 11.3916 17C11.3916 16.4477 11.8393 16 12.3916 16C12.9439 16 13.3916 16.4477 13.3916 17Z" fill="black"/>
<path d="M7.3916 14C7.94389 14 8.3916 13.5523 8.3916 13C8.3916 12.4477 7.94389 12 7.3916 12C6.83932 12 6.3916 12.4477 6.3916 13C6.3916 13.5523 6.83932 14 7.3916 14Z" fill="black"/>
<path d="M7.3916 18C7.94389 18 8.3916 17.5523 8.3916 17C8.3916 16.4477 7.94389 16 7.3916 16C6.83932 16 6.3916 16.4477 6.3916 17C6.3916 17.5523 6.83932 18 7.3916 18Z" fill="black"/>
<path fill-rule="evenodd" clip-rule="evenodd" d="M7.3916 1.75C7.80582 1.75 8.1416 2.08579 8.1416 2.5V3.26272C8.8036 3.24999 9.53293 3.24999 10.3351 3.25H14.448C15.2502 3.24999 15.9796 3.24999 16.6416 3.26272V2.5C16.6416 2.08579 16.9774 1.75 17.3916 1.75C17.8058 1.75 18.1416 2.08579 18.1416 2.5V3.32709C18.4015 3.34691 18.6477 3.37182 18.8806 3.40313C20.053 3.56076 21.002 3.89288 21.7504 4.64124C22.4987 5.38961 22.8308 6.33855 22.9885 7.51098C23.1416 8.65018 23.1416 10.1058 23.1416 11.9435V14.0564C23.1416 15.8941 23.1416 17.3498 22.9885 18.489C22.8308 19.6614 22.4987 20.6104 21.7504 21.3588C21.002 22.1071 20.053 22.4392 18.8806 22.5969C17.7414 22.75 16.2858 22.75 14.4481 22.75H10.3352C8.49745 22.75 7.04179 22.75 5.90258 22.5969C4.73016 22.4392 3.78121 22.1071 3.03285 21.3588C2.28448 20.6104 1.95236 19.6614 1.79474 18.489C1.64157 17.3498 1.64159 15.8942 1.6416 14.0564V11.9436C1.64159 10.1058 1.64157 8.65019 1.79474 7.51098C1.95236 6.33855 2.28448 5.38961 3.03285 4.64124C3.78121 3.89288 4.73016 3.56076 5.90258 3.40313C6.13551 3.37182 6.38166 3.34691 6.6416 3.32709V2.5C6.6416 2.08579 6.97739 1.75 7.3916 1.75ZM6.10245 4.88976C5.09636 5.02502 4.51671 5.27869 4.09351 5.7019C3.6703 6.12511 3.41663 6.70476 3.28136 7.71085C3.25845 7.88123 3.2393 8.06061 3.22329 8.25H21.5599C21.5439 8.06061 21.5247 7.88124 21.5018 7.71085C21.3666 6.70476 21.1129 6.12511 20.6897 5.7019C20.2665 5.27869 19.6868 5.02502 18.6808 4.88976C17.6531 4.75159 16.2984 4.75 14.3916 4.75H10.3916C8.48478 4.75 7.13012 4.75159 6.10245 4.88976ZM3.1416 12C3.1416 11.146 3.14192 10.4027 3.15469 9.75H21.6285C21.6413 10.4027 21.6416 11.146 21.6416 12V14C21.6416 15.9068 21.64 17.2615 21.5018 18.2892C21.3666 19.2952 21.1129 19.8749 20.6897 20.2981C20.2665 20.7213 19.6868 20.975 18.6808 21.1102C17.6531 21.2484 16.2984 21.25 14.3916 21.25H10.3916C8.48478 21.25 7.13011 21.2484 6.10245 21.1102C5.09636 20.975 4.51671 20.7213 4.09351 20.2981C3.6703 19.8749 3.41663 19.2952 3.28136 18.2892C3.1432 17.2615 3.1416 15.9068 3.1416 14V12Z" fill="black"/>
</svg>
