<svg width="25" height="24" viewBox="0 0 25 24" fill="none" xmlns="http://www.w3.org/2000/svg">
<path fill-rule="evenodd" clip-rule="evenodd" d="M13.7281 1.25H16.055C17.2499 1.24999 18.2002 1.24999 18.9622 1.32244C19.7436 1.39674 20.4043 1.55247 20.9928 1.91312C21.5983 2.28418 22.1074 2.79326 22.4784 3.39876C22.8391 3.9873 22.9948 4.64796 23.0691 5.42935C23.1416 6.19141 23.1416 7.14162 23.1415 8.33653V9.15226C23.1416 10.0028 23.1416 10.6794 23.1041 11.2279C23.0658 11.7891 22.9859 12.2709 22.799 12.7221C22.3423 13.8247 21.4663 14.7008 20.3636 15.1575C19.9845 15.3146 19.5803 15.397 19.1224 15.4419C19.1171 15.5812 19.1104 15.7137 19.1018 15.8397C19.0611 16.4357 18.9764 16.9436 18.78 17.4178C18.2979 18.5817 17.3732 19.5064 16.2093 19.9885C15.6125 20.2357 14.9541 20.3081 14.1262 20.3346C13.6808 20.3489 13.3961 20.3587 13.1797 20.385C12.9753 20.41 12.8985 20.4433 12.857 20.4679C12.8109 20.4951 12.7473 20.5451 12.6363 20.6979C12.5165 20.863 12.3807 21.0907 12.1658 21.4539L11.9063 21.8922C11.2294 23.0359 9.55377 23.0359 8.87683 21.8922L8.6174 21.4539C8.40242 21.0907 8.26671 20.863 8.14684 20.6979C8.03588 20.5451 7.97224 20.4951 7.92614 20.4679C7.88465 20.4433 7.80791 20.41 7.60342 20.3851C7.38712 20.3587 7.10238 20.3489 6.65693 20.3346C5.82905 20.3081 5.17072 20.2357 4.57385 19.9885C3.40997 19.5064 2.48527 18.5817 2.00317 17.4178C1.80677 16.9436 1.72207 16.4357 1.6814 15.8397C1.64159 15.2563 1.6416 14.5361 1.6416 13.6274V12.7613C1.64159 11.4848 1.64159 10.4732 1.71865 9.6627C1.79755 8.83288 1.96249 8.13673 2.34156 7.51814C2.73322 6.879 3.27059 6.34163 3.90973 5.94996C4.52832 5.57089 5.22447 5.40595 6.05429 5.32705C6.26524 5.30699 6.4898 5.29216 6.72912 5.28118C6.80914 4.56134 6.96868 3.94704 7.30467 3.39877C7.67572 2.79326 8.1848 2.28418 8.7903 1.91312C9.37883 1.55247 10.0395 1.39674 10.8209 1.32244C11.5829 1.24999 12.5332 1.24999 13.7281 1.25ZM8.24491 5.2512C8.5317 5.25 8.83403 5.25 9.1529 5.25H11.6303C12.9069 5.24999 13.9184 5.24999 14.7289 5.32705C15.5587 5.40595 16.2549 5.57089 16.8735 5.94996C17.5126 6.34163 18.05 6.879 18.4416 7.51814C18.8207 8.13673 18.9857 8.83288 19.0646 9.6627C19.1416 10.4732 19.1416 11.4847 19.1416 12.7613V13.6274C19.1416 13.7307 19.1416 13.8316 19.1415 13.9301C19.4169 13.8944 19.6178 13.8428 19.7896 13.7717C20.5247 13.4672 21.1087 12.8832 21.4132 12.1481C21.5117 11.9101 21.5745 11.6106 21.6076 11.1258C21.6411 10.6343 21.6415 10.0089 21.6415 9.12503V8.37503C21.6415 7.13296 21.6408 6.25408 21.5758 5.57133C21.512 4.89973 21.3914 4.49574 21.1995 4.18251C20.9521 3.77884 20.6127 3.43945 20.209 3.19208C19.8958 3.00013 19.4918 2.87956 18.8202 2.81571C18.1375 2.75079 17.2586 2.75 16.0165 2.75H13.7665C12.5245 2.75 11.6456 2.75079 10.9629 2.81571C10.2913 2.87956 9.88729 3.00013 9.57405 3.19208C9.17039 3.43945 8.831 3.77884 8.58363 4.18251C8.42307 4.44453 8.31389 4.76687 8.24491 5.2512ZM6.19627 6.82031C5.47625 6.88877 5.03677 7.01855 4.69348 7.22892C4.25618 7.4969 3.8885 7.86458 3.62052 8.30189C3.41015 8.64518 3.28037 9.08466 3.21191 9.80468C3.14239 10.5359 3.1416 11.4761 3.1416 12.8V13.6C3.1416 14.5422 3.14201 15.2112 3.17792 15.7376C3.21338 16.2573 3.28092 16.5828 3.38899 16.8438C3.71885 17.6401 4.35154 18.2728 5.14788 18.6027C5.48206 18.7411 5.91262 18.81 6.70488 18.8354L6.73598 18.8364C7.14139 18.8493 7.494 18.8606 7.78504 18.8961C8.09531 18.9339 8.40014 19.0055 8.68982 19.1768C8.97488 19.3454 9.18077 19.569 9.36048 19.8164C9.52674 20.0453 9.69804 20.3347 9.89223 20.6629L10.1677 21.1282C10.2131 21.2049 10.2923 21.25 10.3916 21.25C10.4908 21.25 10.5701 21.2049 10.6155 21.1282L10.891 20.6628C11.0851 20.3347 11.2564 20.0453 11.4227 19.8164C11.6024 19.569 11.8083 19.3454 12.0934 19.1768C12.383 19.0055 12.6879 18.9339 12.9981 18.8961C13.2892 18.8606 13.6418 18.8493 14.0472 18.8364L14.0783 18.8354C14.8706 18.81 15.3011 18.7411 15.6353 18.6027C16.4317 18.2728 17.0644 17.6401 17.3942 16.8438C17.5023 16.5828 17.5698 16.2573 17.6053 15.7376C17.6412 15.2112 17.6416 14.5422 17.6416 13.6V12.8C17.6416 11.4761 17.6408 10.5359 17.5713 9.80468C17.5028 9.08466 17.3731 8.64518 17.1627 8.30189C16.8947 7.86458 16.527 7.4969 16.0897 7.22892C15.7464 7.01855 15.307 6.88877 14.5869 6.82031C13.8558 6.75079 12.9155 6.75 11.5916 6.75H9.1916C7.86771 6.75 6.92745 6.75079 6.19627 6.82031Z" fill="black"/>
<path d="M7.8916 13C7.8916 13.5523 7.44389 14 6.8916 14C6.33932 14 5.8916 13.5523 5.8916 13C5.8916 12.4477 6.33932 12 6.8916 12C7.44389 12 7.8916 12.4477 7.8916 13Z" fill="black"/>
<path d="M11.3916 13C11.3916 13.5523 10.9439 14 10.3916 14C9.83932 14 9.3916 13.5523 9.3916 13C9.3916 12.4477 9.83932 12 10.3916 12C10.9439 12 11.3916 12.4477 11.3916 13Z" fill="black"/>
<path d="M14.8916 13C14.8916 13.5523 14.4439 14 13.8916 14C13.3393 14 12.8916 13.5523 12.8916 13C12.8916 12.4477 13.3393 12 13.8916 12C14.4439 12 14.8916 12.4477 14.8916 13Z" fill="black"/>
</svg>
