<svg width="25" height="24" viewBox="0 0 25 24" fill="none" xmlns="http://www.w3.org/2000/svg">
<path fill-rule="evenodd" clip-rule="evenodd" d="M17.8396 1.75C16.9411 1.74997 16.1919 1.74995 15.5971 1.82991C14.9693 1.91432 14.4025 2.09999 13.9471 2.55546C13.4916 3.01093 13.3059 3.57773 13.2215 4.20552C13.1416 4.8003 13.1416 5.54951 13.1416 6.44798V6.552C13.1416 7.45047 13.1416 8.19971 13.2215 8.79448C13.3059 9.42228 13.4916 9.98908 13.9471 10.4445C14.4025 10.9 14.9693 11.0857 15.5971 11.1701C16.1919 11.2501 16.9411 11.25 17.8396 11.25H17.9436C18.8421 11.25 19.5913 11.2501 20.1861 11.1701C20.8139 11.0857 21.3807 10.9 21.8361 10.4445C22.2916 9.98908 22.4773 9.42228 22.5617 8.79448C22.6417 8.1997 22.6416 7.45048 22.6416 6.552V6.44801C22.6416 5.54953 22.6417 4.80031 22.5617 4.20552C22.4773 3.57773 22.2916 3.01093 21.8361 2.55546C21.3807 2.09999 20.8139 1.91432 20.1861 1.82991C19.5913 1.74995 18.8421 1.74997 17.9436 1.75H17.8396ZM15.0077 3.61612C15.138 3.4858 15.3355 3.37858 15.797 3.31654C16.28 3.2516 16.9276 3.25 17.8916 3.25C18.8556 3.25 19.5032 3.2516 19.9862 3.31654C20.4477 3.37858 20.6452 3.4858 20.7755 3.61612C20.9058 3.74644 21.013 3.94393 21.0751 4.4054C21.14 4.88843 21.1416 5.53599 21.1416 6.5C21.1416 7.46401 21.14 8.11157 21.0751 8.59461C21.013 9.05607 20.9058 9.25357 20.7755 9.38389C20.6452 9.5142 20.4477 9.62143 19.9862 9.68347C19.5032 9.74841 18.8556 9.75 17.8916 9.75C16.9276 9.75 16.28 9.74841 15.797 9.68347C15.3355 9.62143 15.138 9.5142 15.0077 9.38389C14.8774 9.25357 14.7702 9.05607 14.7081 8.59461C14.6432 8.11157 14.6416 7.46401 14.6416 6.5C14.6416 5.53599 14.6432 4.88843 14.7081 4.4054C14.7702 3.94393 14.8774 3.74644 15.0077 3.61612Z" fill="black"/>
<path fill-rule="evenodd" clip-rule="evenodd" d="M6.83961 12.75C5.94114 12.75 5.1919 12.7499 4.59713 12.8299C3.96933 12.9143 3.40253 13.1 2.94706 13.5555C2.49159 14.0109 2.30592 14.5777 2.22152 15.2055C2.14155 15.8003 2.14157 16.5495 2.1416 17.448V17.552C2.14157 18.4505 2.14155 19.1997 2.22152 19.7945C2.30592 20.4223 2.49159 20.9891 2.94706 21.4445C3.40253 21.9 3.96933 22.0857 4.59713 22.1701C5.19191 22.2501 5.94113 22.25 6.83961 22.25H6.9436C7.84208 22.25 8.5913 22.2501 9.18608 22.1701C9.81388 22.0857 10.3807 21.9 10.8361 21.4445C11.2916 20.9891 11.4773 20.4223 11.5617 19.7945C11.6417 19.1997 11.6416 18.4505 11.6416 17.552V17.448C11.6416 16.5495 11.6417 15.8003 11.5617 15.2055C11.4773 14.5777 11.2916 14.0109 10.8361 13.5555C10.3807 13.1 9.81388 12.9143 9.18608 12.8299C8.59131 12.7499 7.8421 12.75 6.94363 12.75H6.83961ZM4.00772 14.6161C4.13804 14.4858 4.33554 14.3786 4.797 14.3165C5.28003 14.2516 5.92759 14.25 6.8916 14.25C7.85562 14.25 8.50318 14.2516 8.98621 14.3165C9.44767 14.3786 9.64517 14.4858 9.77549 14.6161C9.9058 14.7464 10.013 14.9439 10.0751 15.4054C10.14 15.8884 10.1416 16.536 10.1416 17.5C10.1416 18.464 10.14 19.1116 10.0751 19.5946C10.013 20.0561 9.9058 20.2536 9.77549 20.3839C9.64517 20.5142 9.44767 20.6214 8.98621 20.6835C8.50318 20.7484 7.85562 20.75 6.8916 20.75C5.92759 20.75 5.28003 20.7484 4.797 20.6835C4.33554 20.6214 4.13804 20.5142 4.00772 20.3839C3.8774 20.2536 3.77018 20.0561 3.70814 19.5946C3.6432 19.1116 3.6416 18.464 3.6416 17.5C3.6416 16.536 3.6432 15.8884 3.70814 15.4054C3.77018 14.9439 3.8774 14.7464 4.00772 14.6161Z" fill="black"/>
<path fill-rule="evenodd" clip-rule="evenodd" d="M2.1416 6.5C2.1416 3.87665 4.26825 1.75 6.8916 1.75C9.51496 1.75 11.6416 3.87665 11.6416 6.5C11.6416 9.12336 9.51496 11.25 6.8916 11.25C4.26825 11.25 2.1416 9.12336 2.1416 6.5ZM6.8916 3.25C5.09668 3.25 3.6416 4.70508 3.6416 6.5C3.6416 8.29493 5.09668 9.75 6.8916 9.75C8.68653 9.75 10.1416 8.29493 10.1416 6.5C10.1416 4.70508 8.68653 3.25 6.8916 3.25Z" fill="black"/>
<path fill-rule="evenodd" clip-rule="evenodd" d="M13.1416 17.5C13.1416 14.8767 15.2683 12.75 17.8916 12.75C20.515 12.75 22.6416 14.8767 22.6416 17.5C22.6416 20.1234 20.515 22.25 17.8916 22.25C15.2683 22.25 13.1416 20.1234 13.1416 17.5ZM17.8916 14.25C16.0967 14.25 14.6416 15.7051 14.6416 17.5C14.6416 19.2949 16.0967 20.75 17.8916 20.75C19.6865 20.75 21.1416 19.2949 21.1416 17.5C21.1416 15.7051 19.6865 14.25 17.8916 14.25Z" fill="black"/>
</svg>
