<svg width="24" height="25" viewBox="0 0 24 25" fill="none" xmlns="http://www.w3.org/2000/svg">
<path d="M2.68936 7.38254C2.52619 7.00182 2.08528 6.82545 1.70456 6.98862C1.32384 7.15179 1.14747 7.5927 1.31064 7.97342L2.68936 7.38254ZM15.5872 14.0067L15.3125 13.3088L15.5872 14.0067ZM9.04145 14.4157C9.26736 14.0685 9.16904 13.6039 8.82185 13.378C8.47466 13.1521 8.01008 13.2505 7.78417 13.5976L9.04145 14.4157ZM6.37136 15.7689C6.14545 16.1161 6.24377 16.5807 6.59096 16.8066C6.93815 17.0325 7.40273 16.9342 7.62864 16.587L6.37136 15.7689ZM22.6894 7.97342C22.8525 7.5927 22.6762 7.15179 22.2954 6.98862C21.9147 6.82545 21.4738 7.00182 21.3106 7.38254L22.6894 7.97342ZM19 11.8068L18.4867 11.26V11.26L19 11.8068ZM19.9697 13.8371C20.2626 14.13 20.7374 14.13 21.0303 13.8371C21.3232 13.5443 21.3232 13.0694 21.0303 12.7765L19.9697 13.8371ZM11.25 17.178C11.25 17.5922 11.5858 17.928 12 17.928C12.4142 17.928 12.75 17.5922 12.75 17.178H11.25ZM16.3714 16.587C16.5973 16.9342 17.0619 17.0325 17.409 16.8066C17.7562 16.5807 17.8545 16.1161 17.6286 15.7689L16.3714 16.587ZM5.53033 12.3371C5.82322 12.0443 5.82322 11.5694 5.53033 11.2765C5.23744 10.9836 4.76256 10.9836 4.46967 11.2765L5.53033 12.3371ZM2.96967 12.7765C2.67678 13.0694 2.67678 13.5443 2.96967 13.8371C3.26256 14.13 3.73744 14.13 4.03033 13.8371L2.96967 12.7765ZM12 13.928C8.77611 13.928 6.46133 12.3226 4.9246 10.6676C4.15645 9.84041 3.59325 9.01082 3.22259 8.38812C3.03769 8.07748 2.90187 7.82029 2.8134 7.64335C2.76919 7.55493 2.73689 7.48673 2.71627 7.44209C2.70597 7.41978 2.69859 7.40338 2.69411 7.39331C2.69187 7.38827 2.69036 7.38482 2.68957 7.38301C2.68917 7.3821 2.68896 7.38161 2.68892 7.38153C2.68891 7.38149 2.68893 7.38155 2.68901 7.38172C2.68904 7.3818 2.68913 7.38201 2.68915 7.38205C2.68925 7.38228 2.68936 7.38254 2 7.67798C1.31064 7.97342 1.31077 7.97373 1.31092 7.97407C1.31098 7.97422 1.31114 7.97458 1.31127 7.97488C1.31152 7.97547 1.31183 7.97617 1.31218 7.97698C1.31287 7.9786 1.31376 7.98064 1.31483 7.98309C1.31698 7.98801 1.31988 7.9946 1.32353 8.00281C1.33083 8.01923 1.34115 8.04213 1.35453 8.07109C1.38127 8.129 1.42026 8.21118 1.47176 8.31417C1.57469 8.52004 1.72794 8.80973 1.93366 9.15534C2.34425 9.84514 2.96855 10.7655 3.8254 11.6883C5.53867 13.5334 8.22389 15.428 12 15.428V13.928ZM15.3125 13.3088C14.3421 13.6907 13.2417 13.928 12 13.928V15.428C13.4382 15.428 14.7246 15.1522 15.8619 14.7046L15.3125 13.3088ZM7.78417 13.5976L6.37136 15.7689L7.62864 16.587L9.04145 14.4157L7.78417 13.5976ZM22 7.67798C21.3106 7.38254 21.3107 7.38239 21.3108 7.38225C21.3108 7.38221 21.3108 7.38207 21.3109 7.382C21.3109 7.38186 21.311 7.38174 21.311 7.38166C21.3111 7.3815 21.3111 7.38147 21.3111 7.38157C21.311 7.38178 21.3107 7.3825 21.3101 7.38374C21.309 7.38621 21.307 7.39073 21.3041 7.39722C21.2983 7.4102 21.2889 7.43107 21.2758 7.45922C21.2495 7.51555 21.2086 7.60093 21.1526 7.71065C21.0406 7.93025 20.869 8.24629 20.6354 8.62118C20.1669 9.37314 19.4563 10.3499 18.4867 11.26L19.5133 12.3537C20.6023 11.3315 21.3917 10.2439 21.9085 9.41444C22.1676 8.99866 22.36 8.64478 22.4889 8.39213C22.5533 8.26572 22.602 8.1644 22.6353 8.09305C22.6519 8.05737 22.6647 8.02915 22.6737 8.00902C22.6782 7.99895 22.6818 7.9909 22.6844 7.98494C22.6857 7.98196 22.6867 7.97951 22.6876 7.97758C22.688 7.97662 22.6883 7.97579 22.6886 7.9751C22.6888 7.97475 22.6889 7.97444 22.689 7.97416C22.6891 7.97402 22.6892 7.97383 22.6892 7.97376C22.6893 7.97359 22.6894 7.97342 22 7.67798ZM18.4867 11.26C17.6277 12.0662 16.5739 12.8123 15.3125 13.3088L15.8619 14.7046C17.3355 14.1245 18.5466 13.261 19.5133 12.3537L18.4867 11.26ZM18.4697 12.3371L19.9697 13.8371L21.0303 12.7765L19.5303 11.2765L18.4697 12.3371ZM11.25 14.678V17.178H12.75V14.678H11.25ZM14.9586 14.4157L16.3714 16.587L17.6286 15.7689L16.2158 13.5976L14.9586 14.4157ZM4.46967 11.2765L2.96967 12.7765L4.03033 13.8371L5.53033 12.3371L4.46967 11.2765Z" fill="#BDC1C6"/>
</svg>
