<svg width="25" height="25" viewBox="0 0 25 25" fill="none" xmlns="http://www.w3.org/2000/svg">
<path fill-rule="evenodd" clip-rule="evenodd" d="M9.59806 3.84012C9.34593 3.91999 9.09693 4.01077 8.85178 4.11232C7.72952 4.57717 6.70981 5.25852 5.85086 6.11747C4.99192 6.97641 4.31057 7.99612 3.84572 9.11838C3.4768 10.009 3.24997 10.9504 3.17206 11.9082H7.65254C7.68454 10.8123 7.78659 9.73231 7.95617 8.70878C8.1641 7.45379 8.47132 6.29734 8.86682 5.30859C9.08275 4.76877 9.3267 4.27462 9.59806 3.84012ZM12.3916 1.9082C10.9799 1.9082 9.58201 2.18626 8.27776 2.7265C6.97351 3.26674 5.78843 4.05857 4.7902 5.0568C3.79197 6.05503 3.00014 7.24011 2.4599 8.54436C1.91966 9.84861 1.6416 11.2465 1.6416 12.6582C1.6416 14.0699 1.91966 15.4678 2.4599 16.772C3.00013 18.0763 3.79197 19.2614 4.7902 20.2596C5.78843 21.2578 6.9735 22.0497 8.27775 22.5899C9.582 23.1301 10.9799 23.4082 12.3916 23.4082C13.8033 23.4082 15.2012 23.1301 16.5054 22.5899C17.8097 22.0497 18.9948 21.2578 19.993 20.2596C20.9912 19.2614 21.7831 18.0763 22.3233 16.7721C22.8635 15.4678 23.1416 14.0699 23.1416 12.6582C23.1416 11.2465 22.8635 9.84861 22.3233 8.54436C21.7831 7.24011 20.9912 6.05504 19.993 5.05681C18.9948 4.05858 17.8097 3.26674 16.5055 2.7265C15.2012 2.18626 13.8033 1.9082 12.3916 1.9082ZM12.3916 3.4082C12.1303 3.4082 11.7928 3.53399 11.4004 3.9404C11.005 4.34981 10.6092 4.99146 10.2595 5.86568C9.91216 6.7341 9.6301 7.78244 9.436 8.95396C9.28026 9.89389 9.18476 10.8913 9.15322 11.9082L15.63 11.9082C15.5984 10.8913 15.5029 9.89389 15.3472 8.95396C15.1531 7.78244 14.871 6.7341 14.5237 5.86568C14.174 4.99146 13.7782 4.34981 13.3828 3.9404C12.9904 3.53399 12.6529 3.4082 12.3916 3.4082ZM17.1307 11.9082C17.0987 10.8123 16.9966 9.73231 16.827 8.70878C16.6191 7.45379 16.3119 6.29735 15.9164 5.30859C15.7005 4.76877 15.4565 4.27462 15.1851 3.84012C15.4373 3.91999 15.6863 4.01077 15.9314 4.11232C17.0537 4.57717 18.0734 5.25852 18.9323 6.11747C19.7913 6.97641 20.4726 7.99612 20.9375 9.11838C21.3064 10.009 21.5332 10.9504 21.6111 11.9082H17.1307ZM15.63 13.4082L9.15322 13.4082C9.18476 14.4251 9.28026 15.4225 9.436 16.3624C9.6301 17.534 9.91216 18.5823 10.2595 19.4507C10.6092 20.3249 11.005 20.9666 11.4004 21.376C11.7928 21.7824 12.1303 21.9082 12.3916 21.9082C12.6529 21.9082 12.9904 21.7824 13.3828 21.376C13.7782 20.9666 14.174 20.3249 14.5237 19.4507C14.871 18.5823 15.1531 17.534 15.3472 16.3624C15.5029 15.4225 15.5984 14.4251 15.63 13.4082ZM15.1851 21.4763C15.4565 21.0418 15.7005 20.5476 15.9164 20.0078C16.3119 19.0191 16.6191 17.8626 16.827 16.6076C16.9966 15.5841 17.0987 14.5041 17.1307 13.4082H21.6111C21.5332 14.366 21.3064 15.3074 20.9375 16.198C20.4726 17.3203 19.7913 18.34 18.9323 19.1989C18.0734 20.0579 17.0537 20.7392 15.9314 21.2041C15.6863 21.3056 15.4373 21.3964 15.1851 21.4763ZM9.59806 21.4763C9.3267 21.0418 9.08275 20.5476 8.86682 20.0078C8.47132 19.0191 8.1641 17.8626 7.95617 16.6076C7.78659 15.5841 7.68454 14.5041 7.65254 13.4082H3.17206C3.24997 14.366 3.4768 15.3074 3.84572 16.198C4.31057 17.3203 4.99192 18.34 5.85086 19.1989C6.70981 20.0579 7.72952 20.7392 8.85178 21.2041C9.09693 21.3056 9.34593 21.3964 9.59806 21.4763Z" fill="black"/>
</svg>
