<svg width="25" height="25" viewBox="0 0 25 25" fill="none" xmlns="http://www.w3.org/2000/svg">
<path d="M12.8472 21.4129L12.5472 21.2829C7.83723 19.1929 2.82723 15.0929 2.84723 9.8329C2.85723 6.7329 4.57723 4.2429 7.32723 3.3629C9.43723 2.6829 11.3672 3.1929 12.8472 4.8029C14.3272 3.1929 16.2572 2.6829 18.3672 3.3629C21.1172 4.2529 22.8372 6.7329 22.8472 9.8429C22.8772 15.0929 17.8572 19.1929 13.1472 21.2829L12.8472 21.4129ZM9.09723 4.5629C8.67723 4.5629 8.24723 4.6329 7.78723 4.7829C5.25723 5.5929 4.34723 7.9329 4.34723 9.8429C4.32723 14.2629 8.84723 17.9129 12.8472 19.7629C16.8472 17.9129 21.3672 14.2629 21.3472 9.8429C21.3472 7.9329 20.4272 5.6029 17.9072 4.7829C16.1172 4.2029 14.6272 4.7629 13.4672 6.4229L12.8472 7.3029L12.2272 6.4229C11.3672 5.1829 10.3172 4.5529 9.09723 4.5529V4.5629Z" fill="black"/>
</svg>
