<svg width="25" height="25" viewBox="0 0 25 25" fill="none" xmlns="http://www.w3.org/2000/svg">
<path d="M12.3916 18.0664C12.8058 18.0664 13.1416 17.7306 13.1416 17.3164V11.3164C13.1416 10.9022 12.8058 10.5664 12.3916 10.5664C11.9774 10.5664 11.6416 10.9022 11.6416 11.3164V17.3164C11.6416 17.7306 11.9774 18.0664 12.3916 18.0664Z" fill="black"/>
<path d="M12.3916 7.31641C12.9439 7.31641 13.3916 7.76412 13.3916 8.31641C13.3916 8.86869 12.9439 9.31641 12.3916 9.31641C11.8393 9.31641 11.3916 8.86869 11.3916 8.31641C11.3916 7.76412 11.8393 7.31641 12.3916 7.31641Z" fill="black"/>
<path fill-rule="evenodd" clip-rule="evenodd" d="M1.6416 12.3164C1.6416 6.37935 6.45454 1.56641 12.3916 1.56641C18.3287 1.56641 23.1416 6.37935 23.1416 12.3164C23.1416 18.2535 18.3287 23.0664 12.3916 23.0664C6.45454 23.0664 1.6416 18.2535 1.6416 12.3164ZM12.3916 3.06641C7.28297 3.06641 3.1416 7.20777 3.1416 12.3164C3.1416 17.425 7.28297 21.5664 12.3916 21.5664C17.5002 21.5664 21.6416 17.425 21.6416 12.3164C21.6416 7.20777 17.5002 3.06641 12.3916 3.06641Z" fill="black"/>
</svg>
