<svg width="24" height="25" viewBox="0 0 24 25" fill="none" xmlns="http://www.w3.org/2000/svg">
<path d="M2 12.678C2 8.90674 2 7.02112 3.17157 5.84955C4.34315 4.67798 6.22876 4.67798 10 4.67798H14C17.7712 4.67798 19.6569 4.67798 20.8284 5.84955C22 7.02112 22 8.90674 22 12.678C22 16.4492 22 18.3348 20.8284 19.5064C19.6569 20.678 17.7712 20.678 14 20.678H10C6.22876 20.678 4.34315 20.678 3.17157 19.5064C2 18.3348 2 16.4492 2 12.678Z" stroke="#BDC1C6" stroke-width="1.5"/>
<path d="M6 8.67798L8.1589 10.4771C9.99553 12.0076 10.9139 12.7729 12 12.7729C13.0861 12.7729 14.0045 12.0076 15.8411 10.4771L18 8.67798" stroke="#BDC1C6" stroke-width="1.5" stroke-linecap="round"/>
</svg>
