<svg width="48" height="48" viewBox="0 0 48 48" fill="none" xmlns="http://www.w3.org/2000/svg">
<g opacity="1">
<path d="M37.9333 34.137C37.9331 33.8058 37.6645 33.5374 37.3333 33.5374H19.3861C19.0548 33.5374 18.7861 33.2688 18.7861 32.9374V5.11953C18.7861 4.78815 19.0548 4.51953 19.3861 4.51953H37.0283C39.1723 4.51953 40.9183 6.26953 40.9183 8.41953L40.9363 39.5756C40.9363 41.7296 39.1823 43.4796 37.0283 43.4796C36.2003 43.4796 35.5283 42.8076 35.5283 41.9796C35.5283 41.1516 36.2003 40.4796 37.0283 40.4796C37.5383 40.4796 37.9363 40.0856 37.9363 39.5796L37.9333 34.137Z" fill="#725DFF"/>
<path d="M14.8585 4.51953H15.1863C15.5176 4.51953 15.7863 4.78815 15.7863 5.11953V32.9374C15.7863 33.2688 15.5176 33.5374 15.1863 33.5374H14.6603C12.7919 33.5374 11.2641 35.032 11.1985 36.8944V37.0196C11.1985 37.0424 11.198 37.0652 11.197 37.0878C11.2145 37.9782 11.5747 38.8158 12.2163 39.4594C12.6803 39.9254 13.4843 40.4794 14.6603 40.4794H16.7803C17.6083 40.4794 18.2803 41.1514 18.2803 41.9794C18.2803 42.8074 17.6083 43.4794 16.7803 43.4794H14.6603C12.9403 43.4794 11.3183 42.8034 10.0923 41.5794C8.87029 40.3534 8.19629 38.7334 8.19629 37.0194C8.19629 36.9624 8.19703 36.9056 8.19849 36.849V11.1975C8.19849 7.51553 11.1865 4.51953 14.8585 4.51953Z" fill="#725DFF"/>
</g>
<path d="M22.8832 43.0169C22.0252 43.0169 21.3252 42.3289 21.3252 41.4789V35.9629C21.3252 35.4109 21.7732 34.9629 22.3252 34.9629H31.2272C31.7812 34.9629 32.2272 35.4109 32.2272 35.9629V41.4789C32.2272 41.7669 32.1432 42.0569 31.9912 42.2889C31.8272 42.5869 31.4852 42.8549 31.0892 42.9629C30.6832 43.0689 30.2692 43.0129 29.9052 42.7969L27.0932 41.2261C26.9118 41.1247 26.6906 41.1245 26.5088 41.2257L23.6212 42.8329C23.4092 42.9509 23.1512 43.0169 22.8832 43.0169Z" fill="#121212"/>
</svg>
