<svg width="24" height="25" viewBox="0 0 24 25" fill="none" xmlns="http://www.w3.org/2000/svg">
<path d="M2 16.678C2 13.8496 2 12.4353 2.87868 11.5567C3.75736 10.678 5.17157 10.678 8 10.678H16C18.8284 10.678 20.2426 10.678 21.1213 11.5567C22 12.4353 22 13.8496 22 16.678C22 19.5064 22 20.9206 21.1213 21.7993C20.2426 22.678 18.8284 22.678 16 22.678H8C5.17157 22.678 3.75736 22.678 2.87868 21.7993C2 20.9206 2 19.5064 2 16.678Z" stroke="#BDC1C6" stroke-width="1.5"/>
<path d="M12 14.678V18.678" stroke="#BDC1C6" stroke-width="1.5" stroke-linecap="round"/>
<path d="M6 10.678V8.67798C6 5.36427 8.68629 2.67798 12 2.67798C15.3137 2.67798 18 5.36427 18 8.67798V10.678" stroke="#BDC1C6" stroke-width="1.5" stroke-linecap="round"/>
</svg>
