<svg width="25" height="24" viewBox="0 0 25 24" fill="none" xmlns="http://www.w3.org/2000/svg">
<path fill-rule="evenodd" clip-rule="evenodd" d="M8.33673 4.25H13.4465C14.8141 4.24998 15.9164 4.24996 16.7834 4.36652C17.6835 4.48754 18.4413 4.74643 19.0433 5.34835C19.5977 5.90277 19.8611 6.58951 19.9938 7.39783C20.8022 7.53047 21.489 7.79391 22.0435 8.3484C22.6454 8.95032 22.9043 9.70819 23.0253 10.6083C23.1419 11.4753 23.1419 12.5776 23.1419 13.9452V14.0549C23.1419 15.4225 23.1419 16.5248 23.0253 17.3918C22.9043 18.2919 22.6454 19.0498 22.0435 19.6517C21.4416 20.2536 20.6837 20.5125 19.7836 20.6335C18.9166 20.7501 17.8143 20.7501 16.4467 20.7501H11.337C9.9694 20.7501 8.86707 20.7501 8.00011 20.6335C7.1 20.5125 6.34212 20.2536 5.74021 19.6517C5.18577 19.0973 4.92232 18.4105 4.78967 17.6022C3.98124 17.4695 3.29443 17.2061 2.73995 16.6517C2.13804 16.0497 1.87914 15.2919 1.75813 14.3918C1.64156 13.5248 1.64158 12.4225 1.6416 11.0549V10.9451C1.64158 9.57754 1.64156 8.47522 1.75813 7.60825C1.87914 6.70814 2.13804 5.95027 2.73995 5.34835C3.34187 4.74643 4.09974 4.48754 4.99985 4.36652C5.86682 4.24996 6.96914 4.24998 8.33673 4.25ZM6.34731 17.7316C6.4522 18.1345 6.6016 18.3918 6.80087 18.591C7.07763 18.8678 7.4662 19.0483 8.19998 19.1469C8.95533 19.2485 9.95644 19.2501 11.3919 19.2501H16.3919C17.8273 19.2501 18.8284 19.2485 19.5837 19.1469C20.3175 19.0483 20.7061 18.8678 20.9828 18.591C21.2596 18.3143 21.4401 17.9257 21.5387 17.1919C21.6403 16.4366 21.6419 15.4355 21.6419 14.0001C21.6419 12.5646 21.6403 11.5635 21.5387 10.8082C21.4401 10.0744 21.2596 9.68583 20.9828 9.40906C20.7835 9.20976 20.5262 9.06034 20.1232 8.95545C20.1416 9.54434 20.1416 10.206 20.1416 10.9451V11.0549C20.1416 12.4225 20.1416 13.5248 20.0251 14.3918C19.9041 15.2919 19.6452 16.0497 19.0433 16.6517C18.4413 17.2536 17.6835 17.5125 16.7834 17.6335C15.9164 17.75 14.8141 17.75 13.4465 17.75H8.33673C7.5977 17.75 6.93614 17.75 6.34731 17.7316ZM5.19972 5.85315C4.46595 5.9518 4.07738 6.13225 3.80061 6.40901C3.52385 6.68577 3.3434 7.07435 3.24475 7.80812C3.1432 8.56347 3.1416 9.56459 3.1416 11C3.1416 12.4354 3.1432 13.4365 3.24475 14.1919C3.3434 14.9257 3.52385 15.3142 3.80061 15.591C4.07738 15.8678 4.46595 16.0482 5.19972 16.1469C5.95507 16.2484 6.95619 16.25 8.3916 16.25H13.3916C14.827 16.25 15.8281 16.2484 16.5835 16.1469C17.3173 16.0482 17.7058 15.8678 17.9826 15.591C18.2594 15.3142 18.4398 14.9257 18.5385 14.1919C18.64 13.4365 18.6416 12.4354 18.6416 11C18.6416 9.56459 18.64 8.56347 18.5385 7.80812C18.4398 7.07435 18.2594 6.68577 17.9826 6.40901C17.7058 6.13225 17.3173 5.9518 16.5835 5.85315C15.8281 5.75159 14.827 5.75 13.3916 5.75H8.3916C6.95619 5.75 5.95507 5.75159 5.19972 5.85315ZM10.8916 9.25C9.9251 9.25 9.1416 10.0335 9.1416 11C9.1416 11.9665 9.9251 12.75 10.8916 12.75C11.8581 12.75 12.6416 11.9665 12.6416 11C12.6416 10.0335 11.8581 9.25 10.8916 9.25ZM7.6416 11C7.6416 9.20508 9.09668 7.75 10.8916 7.75C12.6865 7.75 14.1416 9.20508 14.1416 11C14.1416 12.7949 12.6865 14.25 10.8916 14.25C9.09668 14.25 7.6416 12.7949 7.6416 11ZM5.3916 8.25C5.80582 8.25 6.1416 8.58579 6.1416 9V13C6.1416 13.4142 5.80582 13.75 5.3916 13.75C4.97739 13.75 4.6416 13.4142 4.6416 13L4.6416 9C4.6416 8.58579 4.97739 8.25 5.3916 8.25ZM16.3916 8.25C16.8058 8.25 17.1416 8.58579 17.1416 9V13C17.1416 13.4142 16.8058 13.75 16.3916 13.75C15.9774 13.75 15.6416 13.4142 15.6416 13V9C15.6416 8.58579 15.9774 8.25 16.3916 8.25Z" fill="black"/>
</svg>
