<svg width="25" height="25" viewBox="0 0 25 25" fill="none" xmlns="http://www.w3.org/2000/svg">
<path fill-rule="evenodd" clip-rule="evenodd" d="M12.3916 8.56641C10.3205 8.56641 8.6416 10.2453 8.6416 12.3164C8.6416 14.3875 10.3205 16.0664 12.3916 16.0664C14.4627 16.0664 16.1416 14.3875 16.1416 12.3164C16.1416 10.2453 14.4627 8.56641 12.3916 8.56641ZM10.1416 12.3164C10.1416 11.0738 11.149 10.0664 12.3916 10.0664C13.6342 10.0664 14.6416 11.0738 14.6416 12.3164C14.6416 13.559 13.6342 14.5664 12.3916 14.5664C11.149 14.5664 10.1416 13.559 10.1416 12.3164Z" fill="black"/>
<path fill-rule="evenodd" clip-rule="evenodd" d="M12.3663 1.56641C11.9219 1.5664 11.5508 1.56639 11.2462 1.58718C10.9291 1.60881 10.6296 1.65546 10.3392 1.77574C9.66539 2.05485 9.13003 2.5902 8.85092 3.26403C8.70562 3.61482 8.66627 3.98452 8.65124 4.38637C8.63916 4.7094 8.47614 4.97892 8.23555 5.11782C7.99497 5.25672 7.68005 5.26314 7.39427 5.11209C7.03874 4.92417 6.69889 4.7734 6.32243 4.72384C5.59933 4.62864 4.86802 4.82459 4.28939 5.26859C4.04003 5.45993 3.84987 5.69601 3.67259 5.95981C3.50228 6.21322 3.31677 6.53455 3.09454 6.91947L3.06929 6.96321C2.84705 7.34812 2.66153 7.66945 2.52722 7.94364C2.38741 8.22907 2.27804 8.51179 2.23701 8.82342C2.14182 9.54652 2.33777 10.2778 2.78177 10.8565C3.01288 11.1577 3.31333 11.3766 3.65377 11.5905C3.92755 11.7625 4.07948 12.0385 4.07946 12.3164C4.07945 12.5942 3.92752 12.8702 3.65378 13.0422C3.31329 13.2561 3.01281 13.4751 2.78167 13.7763C2.33767 14.3549 2.14172 15.0862 2.23692 15.8093C2.27794 16.121 2.38731 16.4037 2.52712 16.6891C2.66143 16.9633 2.84695 17.2846 3.06918 17.6695L3.09444 17.7133C3.31667 18.0982 3.50218 18.4195 3.67249 18.6729C3.84978 18.9367 4.03993 19.1728 4.2893 19.3642C4.86792 19.8081 5.59923 20.0041 6.32234 19.9089C6.69877 19.8593 7.0386 19.7086 7.3941 19.5207C7.67993 19.3696 7.99489 19.376 8.2355 19.515C8.47612 19.6539 8.63916 19.9234 8.65124 20.2465C8.66627 20.6483 8.70563 21.018 8.85092 21.3688C9.13003 22.0426 9.66539 22.578 10.3392 22.8571C10.6296 22.9774 10.9291 23.024 11.2462 23.0456C11.5508 23.0664 11.9219 23.0664 12.3663 23.0664H12.4169C12.8613 23.0664 13.2323 23.0664 13.537 23.0456C13.8541 23.024 14.1536 22.9774 14.444 22.8571C15.1178 22.578 15.6532 22.0426 15.9323 21.3688C16.0776 21.018 16.1169 20.6483 16.1319 20.2464C16.144 19.9234 16.307 19.6539 16.5476 19.5149C16.7882 19.376 17.1032 19.3696 17.389 19.5206C17.7445 19.7085 18.0843 19.8593 18.4608 19.9088C19.1839 20.004 19.9152 19.8081 20.4938 19.3641C20.7432 19.1727 20.9333 18.9367 21.1106 18.6729C21.2809 18.4195 21.4664 18.0982 21.6886 17.7133L21.7139 17.6695C21.9361 17.2846 22.1217 16.9632 22.256 16.689C22.3958 16.4036 22.5051 16.1209 22.5462 15.8093C22.6414 15.0862 22.4454 14.3548 22.0014 13.7762C21.7703 13.475 21.4698 13.2561 21.1294 13.0422C20.8556 12.8702 20.7037 12.5942 20.7037 12.3164C20.7037 12.0386 20.8556 11.7626 21.1293 11.5906C21.4699 11.3767 21.7704 11.1578 22.0015 10.8565C22.4455 10.2779 22.6415 9.54659 22.5463 8.82349C22.5052 8.51186 22.3959 8.22914 22.2561 7.94371C22.1218 7.66953 21.9363 7.34823 21.714 6.96336L21.6888 6.91958C21.4665 6.53466 21.281 6.21329 21.1107 5.95988C20.9334 5.69608 20.7433 5.46 20.4939 5.26866C19.9153 4.82466 19.184 4.62871 18.4608 4.72391C18.0844 4.77347 17.7446 4.92423 17.3891 5.11212C17.1033 5.26319 16.7883 5.25677 16.5477 5.11785C16.3071 4.97893 16.144 4.70938 16.1319 4.38631C16.1169 3.98449 16.0776 3.61481 15.9323 3.26403C15.6532 2.5902 15.1178 2.05485 14.444 1.77574C14.1536 1.65546 13.8541 1.60881 13.537 1.58718C13.2323 1.56639 12.8613 1.5664 12.4168 1.56641H12.3663ZM10.9132 3.16156C10.9904 3.1296 11.1076 3.10012 11.3483 3.0837C11.5958 3.06681 11.9154 3.06641 12.3916 3.06641C12.8678 3.06641 13.1874 3.06681 13.4349 3.0837C13.6756 3.10012 13.7928 3.1296 13.8699 3.16156C14.1762 3.28842 14.4196 3.53177 14.5464 3.83805C14.5865 3.93467 14.6196 4.08528 14.633 4.44238C14.6626 5.23475 15.0716 5.99769 15.7977 6.41689C16.5237 6.83608 17.389 6.80881 18.09 6.43828C18.4059 6.2713 18.553 6.22473 18.6566 6.21108C18.9853 6.1678 19.3177 6.25687 19.5807 6.45869C19.647 6.50953 19.7311 6.5963 19.8657 6.79657C20.0041 7.00243 20.1642 7.279 20.4023 7.69141C20.6404 8.10381 20.7999 8.38079 20.909 8.60354C21.0151 8.82023 21.0482 8.93648 21.0591 9.01927C21.1024 9.34796 21.0133 9.68037 20.8115 9.94338C20.7478 10.0264 20.634 10.1304 20.3313 10.3205C19.66 10.7424 19.2038 11.478 19.2037 12.3163C19.2037 13.1547 19.6599 13.8904 20.3313 14.3123C20.6339 14.5024 20.7477 14.6064 20.8114 14.6894C21.0132 14.9524 21.1023 15.2848 21.059 15.6135C21.0481 15.6963 21.015 15.8125 20.9089 16.0292C20.7998 16.252 20.6403 16.5289 20.4022 16.9413C20.1641 17.3537 20.004 17.6303 19.8656 17.8362C19.731 18.0364 19.6469 18.1232 19.5807 18.1741C19.3176 18.3759 18.9852 18.4649 18.6565 18.4217C18.5529 18.408 18.4059 18.3614 18.0899 18.1945C17.3889 17.8239 16.5236 17.7967 15.7975 18.2159C15.0716 18.6351 14.6626 19.398 14.633 20.1904C14.6196 20.5475 14.5865 20.6981 14.5464 20.7948C14.4196 21.101 14.1762 21.3444 13.8699 21.4713C13.7928 21.5032 13.6756 21.5327 13.4349 21.5491C13.1874 21.566 12.8678 21.5664 12.3916 21.5664C11.9154 21.5664 11.5958 21.566 11.3483 21.5491C11.1076 21.5327 10.9904 21.5032 10.9132 21.4713C10.607 21.3444 10.3636 21.101 10.2367 20.7948C10.1967 20.6981 10.1636 20.5475 10.1502 20.1904C10.1206 19.3981 9.71157 18.6351 8.9855 18.2159C8.25944 17.7967 7.39422 17.824 6.69318 18.1945C6.37725 18.3615 6.23023 18.4081 6.12655 18.4217C5.79786 18.465 5.46545 18.3759 5.20244 18.1741C5.13618 18.1233 5.05205 18.0365 4.91746 17.8363C4.77911 17.6304 4.61896 17.3538 4.38086 16.9414C4.14276 16.529 3.98331 16.252 3.8742 16.0293C3.76806 15.8126 3.73498 15.6963 3.72408 15.6135C3.68081 15.2849 3.76988 14.9524 3.9717 14.6894C4.03536 14.6065 4.14921 14.5024 4.4518 14.3123C5.12319 13.8905 5.57942 13.1548 5.57946 12.3165C5.57951 11.478 5.12326 10.7423 4.45181 10.3204C4.14929 10.1303 4.03545 10.0263 3.9718 9.94332C3.76998 9.6803 3.68091 9.34789 3.72418 9.01921C3.73508 8.93641 3.76816 8.82016 3.8743 8.60347C3.98341 8.38072 4.14285 8.10374 4.38096 7.69134C4.61906 7.27893 4.7792 7.00236 4.91756 6.7965C5.05215 6.59623 5.13628 6.50946 5.20254 6.45862C5.46555 6.2568 5.79796 6.16774 6.12665 6.21101C6.23033 6.22466 6.37736 6.27124 6.69333 6.43824C7.39434 6.80876 8.25951 6.83603 8.98554 6.41686C9.71158 5.99769 10.1206 5.23478 10.1502 4.44242C10.1635 4.08529 10.1967 3.93467 10.2367 3.83805C10.3636 3.53177 10.607 3.28842 10.9132 3.16156Z" fill="black"/>
</svg>
