<svg width="19" height="18" viewBox="0 0 19 18" fill="none" xmlns="http://www.w3.org/2000/svg">
<path d="M17.73 7.8886L14.1962 10.9727L15.2548 15.5643C15.3108 15.8043 15.2948 16.0555 15.2088 16.2865C15.1228 16.5175 14.9707 16.7181 14.7713 16.863C14.572 17.008 14.3343 17.091 14.0881 17.1017C13.8418 17.1124 13.5979 17.0502 13.3868 16.923L9.38205 14.4939L5.38593 16.923C5.17482 17.0502 4.93089 17.1124 4.68464 17.1017C4.43838 17.091 4.20073 17.008 4.00139 16.863C3.80206 16.7181 3.64989 16.5175 3.5639 16.2865C3.47791 16.0555 3.46193 15.8043 3.51795 15.5643L4.57496 10.9774L1.04036 7.8886C0.853409 7.72736 0.718225 7.51452 0.65176 7.27676C0.585294 7.039 0.590504 6.78691 0.666738 6.5521C0.742971 6.31729 0.886834 6.11022 1.08029 5.95684C1.27374 5.80347 1.50817 5.71063 1.75417 5.68995L6.41317 5.28643L8.23179 0.948684C8.32677 0.721074 8.48696 0.526653 8.6922 0.3899C8.89744 0.253146 9.13855 0.180176 9.38518 0.180176C9.63181 0.180176 9.87293 0.253146 10.0782 0.3899C10.2834 0.526653 10.4436 0.721074 10.5386 0.948684L12.3627 5.28643L17.0201 5.68995C17.2661 5.71063 17.5005 5.80347 17.694 5.95684C17.8874 6.11022 18.0313 6.31729 18.1075 6.5521C18.1838 6.78691 18.189 7.039 18.1225 7.27676C18.0561 7.51452 17.9209 7.72736 17.7339 7.8886H17.73Z" fill="#FFB45D"/>
</svg>
