<svg width="25" height="25" viewBox="0 0 25 25" fill="none" xmlns="http://www.w3.org/2000/svg">
<g clip-path="url(#clip0_2761_466)">
<path fill-rule="evenodd" clip-rule="evenodd" d="M12.1665 1.75C9.54315 1.75 7.4165 3.87665 7.4165 6.5C7.4165 9.12335 9.54315 11.25 12.1665 11.25C14.7899 11.25 16.9165 9.12335 16.9165 6.5C16.9165 3.87665 14.7899 1.75 12.1665 1.75ZM8.9165 6.5C8.9165 4.70507 10.3716 3.25 12.1665 3.25C13.9614 3.25 15.4165 4.70507 15.4165 6.5C15.4165 8.29493 13.9614 9.75 12.1665 9.75C10.3716 9.75 8.9165 8.29493 8.9165 6.5Z" fill="#000"/>
<path d="M18.1665 3.75C17.7523 3.75 17.4165 4.08579 17.4165 4.5C17.4165 4.91421 17.7523 5.25 18.1665 5.25C19.543 5.25 20.4165 6.15573 20.4165 7C20.4165 7.84427 19.543 8.75 18.1665 8.75C17.7523 8.75 17.4165 9.08579 17.4165 9.5C17.4165 9.91421 17.7523 10.25 18.1665 10.25C20.1037 10.25 21.9165 8.91715 21.9165 7C21.9165 5.08285 20.1037 3.75 18.1665 3.75Z" fill="#000"/>
<path d="M6.9165 4.5C6.9165 4.08579 6.58072 3.75 6.1665 3.75C4.22928 3.75 2.4165 5.08285 2.4165 7C2.4165 8.91715 4.22928 10.25 6.1665 10.25C6.58072 10.25 6.9165 9.91421 6.9165 9.5C6.9165 9.08579 6.58072 8.75 6.1665 8.75C4.79002 8.75 3.9165 7.84427 3.9165 7C3.9165 6.15573 4.79002 5.25 6.1665 5.25C6.58072 5.25 6.9165 4.91421 6.9165 4.5Z" fill="#000"/>
<path fill-rule="evenodd" clip-rule="evenodd" d="M12.1665 12.75C10.3822 12.75 8.73295 13.2308 7.50784 14.0475C6.28796 14.8608 5.4165 16.0666 5.4165 17.5C5.4165 18.9334 6.28796 20.1392 7.50784 20.9525C8.73295 21.7692 10.3822 22.25 12.1665 22.25C13.9508 22.25 15.6001 21.7692 16.8252 20.9525C18.045 20.1392 18.9165 18.9334 18.9165 17.5C18.9165 16.0666 18.045 14.8608 16.8252 14.0475C15.6001 13.2308 13.9508 12.75 12.1665 12.75ZM6.9165 17.5C6.9165 16.7242 7.38819 15.9301 8.33989 15.2956C9.28634 14.6646 10.6371 14.25 12.1665 14.25C13.6959 14.25 15.0467 14.6646 15.9931 15.2956C16.9448 15.9301 17.4165 16.7242 17.4165 17.5C17.4165 18.2758 16.9448 19.0699 15.9931 19.7044C15.0467 20.3354 13.6959 20.75 12.1665 20.75C10.6371 20.75 9.28634 20.3354 8.33989 19.7044C7.38819 19.0699 6.9165 18.2758 6.9165 17.5Z" fill="#000"/>
<path d="M19.4339 14.3393C19.5226 13.9347 19.9226 13.6787 20.3272 13.7674C21.289 13.9783 22.1558 14.3593 22.7993 14.8859C23.4423 15.412 23.9165 16.1352 23.9165 17C23.9165 17.8648 23.4423 18.588 22.7993 19.1141C22.1558 19.6407 21.289 20.0217 20.3272 20.2326C19.9226 20.3213 19.5226 20.0653 19.4339 19.6607C19.3452 19.2561 19.6013 18.8561 20.0059 18.7674C20.7982 18.5936 21.4315 18.2952 21.8494 17.9532C22.2679 17.6108 22.4165 17.2763 22.4165 17C22.4165 16.7237 22.2679 16.3892 21.8494 16.0468C21.4315 15.7048 20.7982 15.4064 20.0059 15.2326C19.6013 15.1439 19.3452 14.7439 19.4339 14.3393Z" fill="#000"/>
<path d="M4.00585 13.7674C4.41045 13.6787 4.81037 13.9347 4.8991 14.3393C4.98782 14.7439 4.73176 15.1439 4.32716 15.2326C3.53479 15.4064 2.90156 15.7048 2.48363 16.0468C2.06513 16.3892 1.9165 16.7237 1.9165 17C1.9165 17.2763 2.06513 17.6108 2.48363 17.9532C2.90156 18.2952 3.53479 18.5936 4.32716 18.7674C4.73176 18.8561 4.98782 19.2561 4.8991 19.6607C4.81037 20.0653 4.41045 20.3213 4.00585 20.2326C3.04397 20.0217 2.17721 19.6407 1.5337 19.1141C0.890752 18.588 0.416504 17.8648 0.416504 17C0.416504 16.1352 0.890752 15.412 1.5337 14.8859C2.17721 14.3593 3.04397 13.9783 4.00585 13.7674Z" fill="#000"/>
</g>
<defs>
<clipPath id="clip0_2761_466">
<rect width="24" height="24" fill="white" transform="translate(0.166504 0.5)"/>
</clipPath>
</defs>
</svg>
