<svg width="25" height="25" viewBox="0 0 25 25" fill="none" xmlns="http://www.w3.org/2000/svg">
<path fill-rule="evenodd" clip-rule="evenodd" d="M17.2318 3.44238H7.59638C5.28654 3.44238 3.41357 5.31438 3.41357 7.62422V15.0587C3.41357 17.3685 5.28654 19.2415 7.59638 19.2415H17.2308C19.5416 19.2415 21.4136 17.3685 21.4136 15.0587V7.62422C21.4136 5.31438 19.5416 3.44238 17.2318 3.44238Z" stroke="black" stroke-width="1.5" stroke-linecap="round" stroke-linejoin="round"/>
<path fill-rule="evenodd" clip-rule="evenodd" d="M14.6355 11.3424C14.6355 12.5693 13.6411 13.5627 12.4152 13.5627C11.1883 13.5627 10.1938 12.5693 10.1938 11.3424C10.1938 10.1155 11.1883 9.12207 12.4152 9.12207C13.6411 9.12207 14.6355 10.1155 14.6355 11.3424Z" stroke="black" stroke-width="1.5" stroke-linecap="round" stroke-linejoin="round"/>
<path d="M12.4136 15.417V13.5635" stroke="black" stroke-width="1.5" stroke-linecap="round" stroke-linejoin="round"/>
<path d="M12.4136 9.12691V7.2627" stroke="black" stroke-width="1.5" stroke-linecap="round" stroke-linejoin="round"/>
<path d="M10.1909 11.3391H8.3374" stroke="black" stroke-width="1.5" stroke-linecap="round" stroke-linejoin="round"/>
<path d="M16.4927 11.3391H14.6392" stroke="black" stroke-width="1.5" stroke-linecap="round" stroke-linejoin="round"/>
<path d="M6.69873 20.6139V19.1885" stroke="black" stroke-width="1.5" stroke-linecap="round" stroke-linejoin="round"/>
<path d="M18.1313 20.6139V19.1885" stroke="black" stroke-width="1.5" stroke-linecap="round" stroke-linejoin="round"/>
</svg>
